<?xml version="1.0" encoding="utf-8"?>
<!-- Generator: Adobe Illustrator 16.0.0, SVG Export Plug-In . SVG Version: 6.00 Build 0)  -->
<!DOCTYPE svg PUBLIC "-//W3C//DTD SVG 1.0//EN" "http://www.w3.org/TR/2001/REC-SVG-20010904/DTD/svg10.dtd">
<svg version="1.0" id="Calque_1" xmlns="http://www.w3.org/2000/svg" xmlns:xlink="http://www.w3.org/1999/xlink" x="0px" y="0px"
	 width="31.996px" height="25.997px" viewBox="0 0 31.996 25.997" enable-background="new 0 0 31.996 25.997" xml:space="preserve">
<path fill="#515F67" d="M15.123,6.625c0-3.52-2.854-6.374-6.373-6.374S2.377,3.105,2.377,6.625c0,1.433,0.479,2.751,1.277,3.816
	c0.013,0.02,0.023,0.041,0.037,0.06c1.763,2.541,1.051,5.057,0.509,6.095c-1.387,2.661-3.857,5.892-3.857,5.892l5.103,3.043
	c4.248-3.976,9.296-12.168,9.644-18.249C15.111,7.065,15.123,6.847,15.123,6.625z"/>
<path fill="#515F67" d="M31,6.625c0-3.52-2.854-6.374-6.373-6.374s-6.373,2.854-6.373,6.374c0,1.433,0.479,2.751,1.277,3.816
	c0.014,0.02,0.023,0.041,0.037,0.06c1.762,2.541,1.051,5.057,0.509,6.095c-1.388,2.661-3.857,5.892-3.857,5.892l5.103,3.043
	c4.248-3.976,9.297-12.168,9.645-18.249C30.988,7.065,31,6.847,31,6.625z"/>
</svg>
